<svg version="1.1"
     xmlns="http://www.w3.org/2000/svg"
     viewBox="0 0 27.838698814764143 45.55476707640558"
     width="27.838698814764143"
     height="45.55476707640558">
  <g stroke-linecap="round"
     transform="translate(10.257971830020779 10.375546926705098) rotate(0 3.661377577361293 4.912529303576154)">
    <path d="M1.83 0 C3.09 0, 4.34 0, 5.49 0 M1.83 0 C2.76 0, 3.69 0, 5.49 0 M5.49 0 C6.71 0, 7.32 0.61, 7.32 1.83 M5.49 0 C6.71 0, 7.32 0.61, 7.32 1.83 M7.32 1.83 C7.32 4.07, 7.32 6.3, 7.32 7.99 M7.32 1.83 C7.32 3.67, 7.32 5.51, 7.32 7.99 M7.32 7.99 C7.32 9.21, 6.71 9.83, 5.49 9.83 M7.32 7.99 C7.32 9.21, 6.71 9.83, 5.49 9.83 M5.49 9.83 C4.52 9.83, 3.56 9.83, 1.83 9.83 M5.49 9.83 C4.3 9.83, 3.12 9.83, 1.83 9.83 M1.83 9.83 C0.61 9.83, 0 9.21, 0 7.99 M1.83 9.83 C0.61 9.83, 0 9.21, 0 7.99 M0 7.99 C0 6.74, 0 5.48, 0 1.83 M0 7.99 C0 6.56, 0 5.12, 0 1.83 M0 1.83 C0 0.61, 0.61 0, 1.83 0 M0 1.83 C0 0.61, 0.61 0, 1.83 0"
          stroke="#1e1e1e"
          stroke-width="1"
          fill="none"></path>
  </g>
  <g stroke-linecap="round">
    <g transform="translate(13.900885269327205 17.096757146234918) rotate(0 -0.0030445053470202765 2.3801245195212513)">
      <path d="M0 0 C0 0.79, -0.01 3.97, -0.01 4.76 M0 0 C0 0.79, -0.01 3.97, -0.01 4.76"
            stroke="#1e1e1e"
            stroke-width="1"
            fill="none"></path>
    </g>
  </g>
  <mask></mask>
  <g stroke-linecap="round"
     transform="translate(10.257971830020779 25.379515181404656) rotate(0 3.661377577361293 4.912529303576154)">
    <path d="M1.83 0 C2.75 0, 3.67 0, 5.49 0 M1.83 0 C2.98 0, 4.12 0, 5.49 0 M5.49 0 C6.71 0, 7.32 0.61, 7.32 1.83 M5.49 0 C6.71 0, 7.32 0.61, 7.32 1.83 M7.32 1.83 C7.32 4.09, 7.32 6.36, 7.32 7.99 M7.32 1.83 C7.32 4.06, 7.32 6.28, 7.32 7.99 M7.32 7.99 C7.32 9.21, 6.71 9.83, 5.49 9.83 M7.32 7.99 C7.32 9.21, 6.71 9.83, 5.49 9.83 M5.49 9.83 C4.11 9.83, 2.73 9.83, 1.83 9.83 M5.49 9.83 C4.08 9.83, 2.67 9.83, 1.83 9.83 M1.83 9.83 C0.61 9.83, 0 9.21, 0 7.99 M1.83 9.83 C0.61 9.83, 0 9.21, 0 7.99 M0 7.99 C0 6.4, 0 4.8, 0 1.83 M0 7.99 C0 6.46, 0 4.92, 0 1.83 M0 1.83 C0 0.61, 0.61 0, 1.83 0 M0 1.83 C0 0.61, 0.61 0, 1.83 0"
          stroke="#1e1e1e"
          stroke-width="1"
          fill="none"></path>
  </g>
  <g stroke-linecap="round">
    <g
       transform="translate(13.900885269327091 28.483363569027148) rotate(0 -0.0030445053470202765 -2.3801245195212495)">
      <path d="M0 0 C0 -0.79, -0.01 -3.97, -0.01 -4.76 M0 0 C0 -0.79, -0.01 -3.97, -0.01 -4.76"
            stroke="#1e1e1e"
            stroke-width="1"
            fill="none"></path>
    </g>
  </g>
  <mask></mask>
  <g stroke-linecap="round"
     transform="translate(10 10) rotate(0 3.9193494073820716 12.777383538202791)">
    <path d="M1.96 0 C3.5 0, 5.03 0, 5.88 0 M1.96 0 C3.41 0, 4.86 0, 5.88 0 M5.88 0 C7.19 0, 7.84 0.65, 7.84 1.96 M5.88 0 C7.19 0, 7.84 0.65, 7.84 1.96 M7.84 1.96 C7.84 8.03, 7.84 14.11, 7.84 23.6 M7.84 1.96 C7.84 7.33, 7.84 12.7, 7.84 23.6 M7.84 23.6 C7.84 24.9, 7.19 25.55, 5.88 25.55 M7.84 23.6 C7.84 24.9, 7.19 25.55, 5.88 25.55 M5.88 25.55 C4.57 25.55, 3.25 25.55, 1.96 25.55 M5.88 25.55 C4.56 25.55, 3.25 25.55, 1.96 25.55 M1.96 25.55 C0.65 25.55, 0 24.9, 0 23.6 M1.96 25.55 C0.65 25.55, 0 24.9, 0 23.6 M0 23.6 C0 16.78, 0 9.97, 0 1.96 M0 23.6 C0 15.66, 0 7.72, 0 1.96 M0 1.96 C0 0.65, 0.65 0, 1.96 0 M0 1.96 C0 0.65, 0.65 0, 1.96 0"
          stroke="transparent"
          stroke-width="1"
          fill="none"></path>
  </g>
</svg>